<svg version="1.1" id="prefix__svg2" xmlns="http://www.w3.org/2000/svg" x="0" y="0" viewBox="0 0 512.6 512.6" xml:space="preserve"><style>.prefix__st1{fill:#fff}.prefix__st3{fill:red}.prefix__st4{fill:#c080ff}.prefix__st5{fill:#ff80e0}.prefix__st6{fill:#0f0}.prefix__st7{fill:#ffc000}.prefix__st14{fill:#ff0}.prefix__st15{fill:#00c0ff}</style><g id="prefix__layer1" transform="translate(82.136 -322.484)"><path id="prefix__path3060" d="M107.9 331.3c136.6-36.6 277.2 44.6 313.9 181.2s-44.6 277.2-181.2 313.9c-136.7 36.5-277.3-44.6-314-181.3s44.6-277.2 181.3-313.8z" fill="#c8ab37"/><path id="prefix__path5001" class="prefix__st1" d="M109.5 337.3c133.3-35.7 270.5 43.5 306.2 176.8s-43.5 270.5-176.8 306.2-270.5-43.5-306.2-176.8S-23.9 373 109.5 337.3z"/><path id="prefix__path5318" d="M149.9 488.2c50-13.4 101.4 16.3 114.8 66.3 13.4 50-16.3 101.4-66.3 114.8S97 653 83.6 603c-13.4-49.9 16.3-101.4 66.3-114.8z" fill="#37c837"/><path id="prefix__path3909" class="prefix__st1" d="M-73.7 611.4c3 22.8 8.1 41.8 16.9 63.1l144.4-59.8c-3.1-7.5-5.3-15.5-6.4-23.7l-154.9 20.4z"/><path id="prefix__path3911" d="M-44.5 644.1c.6 2.1 1.4 3.6 2.7 4.6 1.2 1 2.5 1.3 4 .9s2.5-1.3 3-2.8.5-3.3 0-5.4c-.6-2.1-1.4-3.5-2.6-4.5-1.2-1-2.5-1.3-3.9-.9-1.5.4-2.5 1.4-3 2.8-.8 1.6-.8 3.3-.2 5.3zm-3.2-12c.3 1.3.9 2.2 1.6 2.9.8.6 1.6.8 2.5.6s1.5-.7 1.8-1.4.3-1.9.1-3.4l-.3-2c-.1-.8-.1-1.4-.1-1.7 0-.2.2-.3.4-.4.3-.1.7 0 .9.4s.5.9.7 1.5c.2.9.3 1.8.2 2.7-.2 1-.6 1.6-1.2 1.9l.4 1.5 3.2-.8-.4-1.4c-.4.1-.7-.1-.8-.5 0-.7.1-1.4.1-2.1 0-.7-.1-1.5-.3-2.4-.3-1.3-.9-2.2-1.6-2.8-.7-.6-1.6-.7-2.5-.5-.8.2-1.3.6-1.7 1.2-.4.6-.5 1.3-.5 2.1l.6 4.5c0 .6-.1.9-.5 1-.3.1-.6-.1-.9-.4-.3-.3-.5-.7-.7-1.3-.3-1.1-.3-2.1-.1-3.1.2-.7.5-1.1.9-1.5l-.4-1.4-2.7.7.4 1.4c.3-.1.6 0 .6.3v2.3c0 .8.2 1.5.3 2.1zm8.5 30.6l1.7-.5-.1-.3c-.2-.8-.2-1.4.1-1.7.1-.2.5-.3 1-.5l1.9-.5c.9-.2 1.5-.3 1.8-.1s.5.6.7 1.3l.1.3 1.7-.5-3-11.3-3.4.9.5 1.8c.7-.1 1.3-.1 1.5.1.3.2.5.6.7 1.3l.6 2.4-3.5.9c-.9.2-1.5.2-1.8 0-.2-.2-.4-.6-.6-1.2l-.1-.3-1.7.5 1.9 7.4zm-10.1-38l1.7-.5-.1-.4c-.2-.7-.2-1.3.1-1.6.2-.2.5-.4 1-.6l1.9-.5c.9-.2 1.5-.3 1.8-.1s.5.6.7 1.3l.1.3 1.7-.5-3.2-11.9-3.5.9.5 1.7c.7-.2 1.3-.2 1.6.1.3.2.5.7.7 1.4l.8 3-1.9.5-.1-.5c-.2-.6-.2-1.1-.1-1.4.1-.3.3-.4.8-.6l-.5-1.7-3.9 1 .5 1.8c.4-.1.7-.1.9 0s.4.5.5.9l.2.8-1.9.9-.8-3c-.2-.7-.2-1.1-.1-1.4.1-.4.6-.7 1.3-1l-.5-1.7-3.4.9 3.2 11.9zm6.4 18.9c-.2-.9-.1-1.8.3-2.6s1.1-1.3 2-1.5 1.7-.1 2.5.4 1.3 1.2 1.6 2.1c.3 1 .2 1.9-.3 2.7-.4.8-1.1 1.3-2 1.6s-1.8.1-2.6-.4c-.8-.6-1.3-1.3-1.5-2.3zm11.2-8.3l6.5 1.9c.8.2 1.3.4 1.6.7.3.3.5.7.6 1.3l1.7-.5-1.5-5.6-1.7.5V633.9c.1.3.1.6.1.9 0 .4-.1.6-.4.6-.1 0-.3 0-.6-.1l-1.1-4.2c.2-.2.4-.3.5-.4.2-.1.4 0 .5.2s.3.6.4 1.2l1.7-.5-1.9-7-1.7.5c.1.4.1.8 0 1.1-.2.5-.5 1-1 1.6l-4.6 4.8.9 2.7zm2.4-1.2l1.7-1.8.7 2.4-2.4-.6zm14.6 11.4l9-2.4-1.2-4.5c-1.6.4-2.9.5-3.7.1-.9-.5-1.7-1.6-2.2-3.5l-.5-1.8 9-2.4c2.1-.6 3.6-.6 4.3-.3.8.4 1.4 1.5 1.9 3.4l.3 1 4.4-1.2-5.1-19.1-4.4 1.2.2 1c.5 1.9.5 3.1 0 3.9-.5.7-1.8 1.4-3.9 1.9l-9 2.4-.5-1.8c-.5-1.9-.5-3.4.2-4.3.5-.7 1.6-1.2 3.1-1.6L-14 613l-9 2.4 8.3 30.1zM10 639l3.5-.9-.2-.7c-.4-1.6-.5-2.7-.1-3.3.2-.4.8-.8 1.6-1l.7-.2 2.8-.7c3-.8 5.1-2.2 6.2-4.3 1.2-2.3 1.3-5.3.3-9.1-.9-3.3-2.3-5.8-4.3-7.3s-4.2-2-6.7-1.3l-3.2.8c-1.7.5-2.9.5-3.6 0-.5-.4-1-1.2-1.3-2.5l-.2-.5-3.5.9L5.2 621l3.5-.9-.1-.6c-.4-1.5-.4-2.6 0-3.3.3-.4.8-.8 1.6-1l.5-.1 3.1-.8c2.2-.6 3.8-.3 5 .9.7.7 1.3 1.9 1.7 3.4.5 2 .4 3.5-.3 4.7-.7 1.2-2.2 2.1-4.5 2.7l-1.2.3c-1.7.5-3 .5-3.7 0-.5-.3-.9-1.2-1.3-2.5l-.2-.7-3.5.9 4.2 15zm19.9-8.5l3-.8-.1-.5c-.3-1.3-.3-2.2 0-2.7s1.2-.9 2.5-1.2l2.7-.7c1.4-.4 2.4-.5 2.9-.2s.9 1.1 1.3 2.3l.2.5 3-.8-3.4-12.6-3 .8.1.6c.3 1.3.4 2.1.1 2.6-.3.5-1 .9-2.2 1.2l-.5.1-1.1-4.3c-.3-1.2 0-2.1 1.1-2.6s2.2-1 3.2-1.5c1-.9 1.3-2.4.7-4.5-.4-1.4-.9-2.3-1.8-2.9-.8-.5-1.8-.7-2.8-.4l-2 .5.5 1.8 1.8-.5c.5-.1.7-.1.9-.1.1.1.3.2.3.5.1.4-.2.7-1 .9l-1 .3c-1.1.3-1.8.9-2.2 1.8-.3.8-.3 1.7 0 2.8-.4-1-.8-1.7-1.1-2.1-1.1-1.3-2.4-1.8-3.9-1.4-1.3.3-2.1 1.1-2.5 2.4-.4 1.2-.3 2.9.2 4.9l4.1 15.8zm.5-9.8l-1.2-4.5c-.4-1.6-.1-2.5.8-2.7 1-.3 1.8.6 2.3 2.5l1.1 4-3 .7zm16.8 4.1l2.5-.7-.1-.5c-.3-1.2-.3-2 .1-2.5.2-.3.7-.5 1.4-.7l3-.8c1.1-.3 1.9-.4 2.3-.2.5.2.9.9 1.3 2l.1.5 2.5-.7-2.4-8.8-2.5.7.1.5c.3 1 .3 1.8 0 2.2s-1 .8-2.2 1.1l-2.7.7 5.4-13.2-.7-2.5-7.9 2.1c-1.1.3-1.9.4-2.3.3-.5-.2-1-.9-1.3-2.1l-.1-.4-2.5.7 2.4 8.9 2.5-.7-.1-.5c-.3-1-.3-1.8 0-2.3.2-.3.5-.6 1.1-.7.1 0 .2-.1.3-.1s.2-.1.3-.1l2.4-.7-4.8 11.6 1.9 6.9z"/><path id="prefix__path4691" class="prefix__st3" d="M81.2 591c-1-7.9-1.1-16.1 0-24.5l-155-20.4c-3 22.8-3 42.4 0 65.3l155-20.4z"/><path id="prefix__text4697" d="M-13 564.9c2.3 0 4.1 1.2 5.4 3.6 1.3 2.4 2 5.7 2 9.9 0 3.5-.4 6.4-1.3 8.8-1.3 3.6-3.3 5.5-6.2 5.5-2.7 0-4.6-1.6-5.8-4.7-.4-1-.7-2.6-1-4.7-.5 2.7-1 4.6-1.6 5.7-1 1.8-2.7 2.7-4.9 2.7-2.3 0-4.1-1.1-5.4-3.4-1.3-2.3-2-5.4-2-9.4 0-4.1.7-7.3 2-9.7s3.2-3.6 5.6-3.6 4.1 1.4 5.3 4.2c.4.9.7 2.3 1 4.2.3-2.1.6-3.6 1-4.6 1.2-2.9 3.2-4.5 5.9-4.5zm-12.9 9.5c-1.3 0-2.3.4-3.2 1.3-.9.9-1.3 1.9-1.3 3.1 0 1.2.4 2.2 1.2 3.1.8.8 1.9 1.2 3.2 1.2 1.2 0 2.3-.4 3.1-1.3.9-.8 1.3-1.9 1.3-3.1 0-1.1-.4-2.2-1.2-3s-1.9-1.3-3.1-1.3zm12.2-.1c-1.2 0-2.2.4-3.1 1.3-.9.9-1.4 2-1.4 3.2s.4 2.3 1.3 3.2 2 1.3 3.3 1.3 2.3-.4 3.2-1.2 1.3-1.9 1.3-3.2c0-1.2-.4-2.3-1.3-3.2-.9-.9-2-1.4-3.3-1.4z"/><path id="prefix__text4701" d="M11.1 563.8c4 0 7.4 1.4 10 4.2s4 6.5 4 10.9c0 4.2-1.3 7.8-4 10.6-2.6 2.8-6 4.2-10 4.2-4.1 0-7.5-1.4-10.1-4.2s-3.9-6.4-3.9-10.9c0-4.2 1.4-7.8 4.1-10.6s6-4.2 9.9-4.2zm-.3 9.6c-2.9 0-5.2.5-7.1 1.5s-2.8 2.3-2.8 4c0 1.5.6 2.7 1.8 3.6 1.7 1.3 4.4 1.9 8.1 1.9 3.2 0 5.7-.5 7.5-1.4 1.8-.9 2.7-2.3 2.7-4.2 0-3.6-3.4-5.4-10.2-5.4z"/><path id="prefix__path4711" class="prefix__st4" d="M81.2 566.6c1-7.9 3.1-15.9 6.3-23.6l-144.4-59.8c-8.8 21.3-13.9 40.2-16.9 63l155 20.4z"/><path id="prefix__text4717" d="M-3.6 517.6c2.2.6 3.7 2.3 4.5 5 .8 2.8.7 6-.3 9.8-1 3.6-2.4 6.4-4.4 8.4s-4.1 2.7-6.4 2.1c-1.2-.3-2.1-1-2.7-1.9-.6-1-.8-2-.5-3.2.3-1 .9-1.8 1.8-2.5 1-.6 2-.8 3-.5 1.1.3 1.9 1.1 2.4 2.2 1.2-.7 2-1.9 2.5-3.5.4-1.7.4-3.1-.1-4.4-.5-1.3-1.4-2.1-2.8-2.5-1.3-.3-2.4-.1-3.4.7s-1.7 2.1-2.2 4c-.1.2-.1.4-.1.4v.1l-3.8-1c.1-.3.2-.5.2-.6.5-1.8.5-3.3.1-4.4-.4-1.1-1.2-1.8-2.5-2.1-1.3-.4-2.5-.2-3.6.5s-1.8 1.9-2.2 3.5c-.4 1.5-.3 2.9.3 4.2.5-.3 1-.6 1.5-.7.5-.1 1.1-.1 1.6 0 1.1.3 1.8.9 2.4 1.8.5.9.6 2 .3 3.2-.3 1.1-.9 2-1.9 2.6s-2.1.7-3.3.4c-2-.5-3.4-2.1-4.1-4.6s-.6-5.5.4-9.1c1-3.8 2.5-6.7 4.4-8.7s4-2.6 6.3-2c2.5.7 3.9 2.5 4.1 5.5 0 1-.1 2.4-.4 4.3 1.4-3.1 2.6-5.2 3.5-6.1 1.4-1.1 3.2-1.5 5.4-.9z"/><path id="prefix__text4721" d="M24.4 525.7c2.5.7 4.3 2.1 5.5 4.4 1.5 2.9 1.5 6.7.3 11.4-.8 3.2-2.1 5.6-3.9 7.4-1.7 1.8-3.5 2.4-5.4 1.9-1.1-.3-1.8-.9-2.2-1.7-.4-.9-.5-1.9-.2-3.1.3-1.1.8-1.9 1.6-2.5.8-.6 1.6-.7 2.6-.5.7.2 1.3.7 1.7 1.4 1.1-.8 1.8-1.8 2.1-3 .4-1.3.2-2.6-.5-3.9-.7-1.2-1.7-2-3.1-2.4s-2.7-.2-3.9.4c-1.2.7-2 1.7-2.3 3.2-.4 1.5-.2 3 .7 4.5l-1.2 4.7L1.6 544 7 523.3l5.6 1.5-4.2 15.9 4.3 1.2c-.1-.9-.3-1.8-.4-2.8-.1-1.3.2-2.9.7-4.9.9-3.3 2.3-5.7 4.3-7.2 2-1.6 4.4-2 7.1-1.3z"/><path id="prefix__path4731" class="prefix__st5" d="M87.5 542.9c3.1-7.4 7.1-14.5 12.2-21.2l-124-95.1c-14 18.3-23.8 35.3-32.6 56.5l144.4 59.8z"/><path id="prefix__text4737" d="M24.6 477l-9.5 16.4-4.5-2.6.6-1c.8-1.3 1.1-2.4 1.1-3.1s-.6-1.3-1.6-1.9l-.7-.4-6.5 11.3-3.3-1.9-3.9-20.2 3-5.1 11.7 6.8 2.6-4.5 3.3 1.9-2.6 4.5.7.5c1 .6 1.8.7 2.5.4.7-.3 1.4-1.1 2.2-2.6l.5-.9 4.4 2.4zm-17.9 5.5l-4.8-2.8 1.7 8.2 3.1-5.4z"/><path id="prefix__text4741" d="M43.2 488.7c2.2 1.3 3.6 3.2 4.1 5.7.7 3.2-.2 6.9-2.7 11.1-1.6 2.8-3.5 4.9-5.6 6.1s-4 1.4-5.7.4c-.9-.5-1.5-1.3-1.7-2.3s0-2 .6-3 1.3-1.7 2.2-2c.9-.4 1.8-.3 2.7.2.7.4 1.1 1 1.3 1.8 1.2-.5 2.2-1.2 2.8-2.4.7-1.2.9-2.5.6-3.9-.3-1.4-1.1-2.4-2.4-3.2-1.3-.7-2.6-.9-3.9-.6-1.3.3-2.3 1.1-3.1 2.4s-.9 2.8-.5 4.5l-2.4 4.2-13.1-7.6L27 481.9l5 2.9-8.2 14.2 3.9 2.2c.1-.9.2-1.8.3-2.8.3-1.3.9-2.8 2-4.5 1.7-2.9 3.7-4.9 6.1-5.9 2.3-.9 4.7-.7 7.1.7z"/><path id="prefix__path4751" class="prefix__st6" d="M99.8 521.7c4.9-6.4 10.6-12.2 17.3-17.3l-95.2-124c-18.3 14-32.1 27.9-46.1 46.1l124 95.2z"/><path id="prefix__text4757" d="M40.6 426.9c-.2 2.9 0 5.7.8 8.5.6 1.9 1.4 3.8 2.5 5.6.5.7.9 1.4 1.4 2l1.3 1.6c2.3 2.8 2.4 5.2.5 7.1-.9.9-2 1.4-3.2 1.4s-2.3-.6-3.4-1.7c-1-1-1.7-2-2.2-3.1-.7-1.5-1.1-3.6-1.4-6.3l-.4-9.9-6.9 6.9c-1.3 1.3-2 2.3-2.1 3.2-.1.9.4 1.9 1.5 3l.5.5-3.4 3.4-7.2-7.2 18.3-18.3 3.4 3.3z"/><path id="prefix__text4761" d="M69.5 452.9c2.8 2.8 4.2 6.2 4.1 10.1s-1.8 7.4-4.9 10.5c-3 3-6.4 4.6-10.3 4.7s-7.2-1.2-10.1-4.1-4.3-6.3-4.2-10.1c.1-3.8 1.8-7.3 4.9-10.5 3-3 6.5-4.5 10.4-4.6 3.9-.1 7.3 1.2 10.1 4zm-7 6.5c-2-2-4-3.3-6-4-2-.6-3.6-.3-4.8.8-1 1-1.5 2.3-1.2 3.8.3 2.1 1.8 4.5 4.4 7.1 2.3 2.3 4.4 3.7 6.3 4.3 1.9.6 3.5.2 4.8-1.1 2.5-2.4 1.3-6-3.5-10.9z"/><path id="prefix__path4771" class="prefix__st7" d="M117.1 504.4c6.4-4.9 13.4-9 21.2-12.2L78.5 347.8c-21.3 8.8-38.3 18.6-56.5 32.6l95.1 124z"/><path id="prefix__path4791" class="prefix__st4" d="M138.3 492.2c7.4-3.1 15.3-5.2 23.6-6.3l-20.4-155c-22.8 3-41.8 8.1-63 16.9l59.8 144.4z"/><path id="prefix__text4797" d="M138.6 392c.7 2.7.1 5.3-1.8 7.7-2 2.5-4.8 4.2-8.5 5.2-4.3 1.1-8 .8-11.3-.9-3.2-1.8-5.4-4.7-6.5-8.9-1.1-4.1-.6-7.8 1.5-11s5.5-5.5 10.1-6.7c3.2-.8 5.8-1.1 7.8-.6 2.1.4 3.3 1.5 3.8 3.1.3.9.1 1.8-.4 2.6s-1.4 1.3-2.7 1.7c-1.1.3-2.1.3-2.9 0-.9-.3-1.4-.8-1.6-1.6-.1-.5 0-.9.3-1.4-.7-.4-1.3-.6-1.8-.7s-1.2 0-2.1.2c-2.3.6-3.6 1.9-4 4-.3 1.3-.2 2.9.3 4.6.1.2.1.4.2.6 0 .2.1.3.1.4.9-1.1 1.9-2 2.8-2.6 1-.6 2.3-1.2 3.8-1.6 3-.8 5.8-.7 8.2.4 2.5 1.1 4 2.9 4.7 5.5zm-8.9 2.8c-.4-1.5-1.2-2.7-2.3-3.5-1.1-.8-2.3-1-3.6-.7-1.2.3-2.1 1.1-2.7 2.3-.6 1.2-.7 2.6-.3 4.1.4 1.5 1.2 2.7 2.3 3.5 1.1.8 2.3 1.1 3.6.7 1.2-.3 2.1-1.1 2.7-2.4.6-1.1.7-2.5.3-4z"/><path id="prefix__text4801" d="M146.5 417.4c1 3.9.5 7.5-1.5 10.8-2.1 3.3-5.2 5.5-9.5 6.6-4.1 1.1-7.9.7-11.3-1.1-3.4-1.8-5.6-4.7-6.7-8.6-1.1-4-.6-7.6 1.4-10.8 2-3.3 5.2-5.5 9.5-6.6 4.1-1.1 7.8-.7 11.3 1.2 3.5 1.9 5.7 4.7 6.8 8.5zm-9.4 2.2c-.7-2.8-1.8-4.9-3.2-6.4s-2.9-2.1-4.5-1.7c-1.4.4-2.4 1.3-3 2.7-.8 2-.7 4.7.2 8.3.8 3.1 1.9 5.4 3.3 6.9s2.9 2 4.7 1.5c3.5-1 4.3-4.7 2.5-11.3z"/><path id="prefix__path4811" d="M161.9 485.8c7.9-1 16.1-1.1 24.5 0l20.4-155c-22.8-3-42.4-3-65.3 0l20.4 155z" fill="#ccc"/><radialGradient id="prefix__path4813_00000145024958904095020600000002938311864303107999_" cx="-22324.67" cy="12668.978" r="32.626" gradientTransform="matrix(.03867 0 0 -.04807 1034.13 952.668)" gradientUnits="userSpaceOnUse"><stop offset="0" stop-color="#ccc"/><stop offset="1" stop-color="#fff"/></radialGradient><path id="prefix__path4813" d="M161.9 485.8c7.9-1 16.1-1.1 24.5 0l20.4-155c-22.8-3-42.4-3-65.3 0l20.4 155z" opacity=".25" fill="url(#prefix__path4813_00000145024958904095020600000002938311864303107999_)"/><radialGradient id="prefix__path4815_00000140002895901356059960000006125962437256781488_" cx="-22420.992" cy="11865.575" r="32.626" gradientTransform="matrix(.03867 0 0 -.04807 1034.13 952.668)" gradientUnits="userSpaceOnUse"><stop offset="0" stop-color="#ccc"/><stop offset="1" stop-color="#fff"/></radialGradient><path id="prefix__path4815" d="M161.9 485.8c7.9-1 16.1-1.1 24.5 0l20.4-155c-22.8-3-42.4-3-65.3 0l20.4 155z" opacity=".25" fill="url(#prefix__path4815_00000140002895901356059960000006125962437256781488_)"/><radialGradient id="prefix__path4817_00000107569797701617666280000013873538476370824607_" cx="-2897.537" cy="6531.202" r="32.626" gradientTransform="matrix(.2163 .05407 .01166 -.04663 734.974 863.37)" gradientUnits="userSpaceOnUse"><stop offset="0" stop-color="#ccc"/><stop offset="1" stop-color="#fff"/></radialGradient><path id="prefix__path4817" d="M161.9 485.8c7.9-1 16.1-1.1 24.5 0l20.4-155c-22.8-3-42.4-3-65.3 0l20.4 155z" opacity=".25" fill="url(#prefix__path4817_00000107569797701617666280000013873538476370824607_)"/><radialGradient id="prefix__path4819_00000170254195788496775350000013600796893443736224_" cx="-11684.046" cy="3100.104" r="32.626" gradientTransform="matrix(.07106 .0027 .00569 -.1498 975.877 928.64)" gradientUnits="userSpaceOnUse"><stop offset="0" stop-color="#ccc"/><stop offset="1" stop-color="#fff"/></radialGradient><path id="prefix__path4819" d="M161.9 485.8c7.9-1 16.1-1.1 24.5 0l20.4-155c-22.8-3-42.4-3-65.3 0l20.4 155z" opacity=".25" fill="url(#prefix__path4819_00000170254195788496775350000013600796893443736224_)"/><radialGradient id="prefix__path4821_00000046332414477222949630000012519081039653886865_" cx="-13044.785" cy="1139.65" r="32.626" gradientTransform="matrix(.06369 .03164 .0177 -.03564 995.18 915.692)" gradientUnits="userSpaceOnUse"><stop offset="0" stop-color="#ccc"/><stop offset="1" stop-color="#fff"/></radialGradient><path id="prefix__path4821" d="M161.9 485.8c7.9-1 16.1-1.1 24.5 0l20.4-155c-22.8-3-42.4-3-65.3 0l20.4 155z" opacity=".25" fill="url(#prefix__path4821_00000046332414477222949630000012519081039653886865_)"/><path id="prefix__path4853" class="prefix__st6" d="M186.4 485.8c7.9 1 15.9 3.1 23.6 6.3l59.8-144.4c-21.3-8.8-40.2-13.9-63-16.9l-20.4 155z"/><path id="prefix__text4859" d="M236.8 399.2c-.7 2.7-2.5 4.6-5.5 5.8-2.9 1.1-6.2 1.2-10 .2-4.3-1.1-7.4-3.3-9.3-6.4-1.9-3.1-2.3-6.8-1.2-11 1.1-4.1 3.4-7 6.9-8.8 3.5-1.7 7.5-2 12.1-.8 3.2.8 5.5 2 7.1 3.4s2.1 2.9 1.7 4.6c-.3.9-.8 1.6-1.7 2s-1.9.4-3.1.1c-1.1-.3-1.9-.8-2.5-1.5s-.8-1.4-.6-2.2c.1-.5.5-.8 1-1-.4-.7-.8-1.2-1.2-1.5s-1.1-.6-1.9-.8c-2.3-.6-4.1-.1-5.5 1.4-.9 1-1.6 2.4-2.1 4.1-.1.2-.1.4-.2.6 0 .2-.1.3-.1.4 1.3-.5 2.6-.8 3.8-.8 1.2-.1 2.5.1 4.1.5 3 .8 5.3 2.3 6.9 4.5 1.5 2.3 2 4.7 1.3 7.2zm-9.2-2c.4-1.5.3-2.9-.2-4.2-.6-1.3-1.5-2.1-2.8-2.4-1.2-.3-2.3-.1-3.4.6s-1.9 1.9-2.3 3.4c-.4 1.5-.3 2.9.2 4.2.5 1.3 1.5 2.1 2.8 2.5 1.2.3 2.4.1 3.5-.7 1.1-.8 1.8-1.9 2.2-3.4z"/><path id="prefix__text4863" d="M230.9 425.2c-1 3.9-3.3 6.7-6.7 8.6-3.4 1.8-7.3 2.2-11.5 1-4.1-1.1-7.2-3.3-9.2-6.6-2.1-3.3-2.6-6.9-1.5-10.8 1.1-4 3.3-6.9 6.7-8.7 3.4-1.8 7.2-2.1 11.5-1 4.1 1.1 7.1 3.3 9.2 6.7 2 3.4 2.5 7 1.5 10.8zm-9.2-2.8c.7-2.8.9-5.2.4-7.2s-1.5-3.3-3.1-3.7c-1.4-.4-2.7-.1-3.9.8-1.7 1.3-3 3.8-4 7.4-.8 3.1-1 5.6-.6 7.6s1.6 3.2 3.4 3.6c3.4.9 6-1.9 7.8-8.5z"/><g id="prefix__g4871" transform="rotate(45 384.456 71.155)"><path id="prefix__path4874" class="prefix__st14" d="M558.8 492.2c7.4-3.1 15.3-5.2 23.6-6.3l-20.4-155c-22.8 3-41.8 8.1-63 16.9l59.8 144.4z"/><g id="prefix__g4876" transform="rotate(-15 639.92 922.054)"><path id="prefix__text4880" d="M697.6 389.5c0 2.6-1 4.7-2.9 6.4-2.4 2.2-6.1 3.2-10.9 3.2-3.3 0-6-.6-8.1-1.8-2.1-1.2-3.2-2.8-3.2-4.7 0-1.1.4-2 1.1-2.6.7-.7 1.7-1 2.9-1 1.1 0 2.1.3 2.9.9.8.6 1.1 1.4 1.1 2.4 0 .8-.3 1.4-.9 2 1 .8 2.2 1.3 3.5 1.3 1.4 0 2.6-.5 3.6-1.5s1.5-2.2 1.5-3.7-.5-2.7-1.4-3.7-2.2-1.4-3.7-1.4-2.9.6-4.2 1.8h-4.8v-15.2h21.2v5.8h-16.4v4.5c.8-.4 1.7-.7 2.6-1.1 1.2-.4 2.9-.6 4.9-.6 3.4 0 6.1.8 8.1 2.3 2.1 1.7 3.1 3.9 3.1 6.7z"/><path id="prefix__text4884" d="M700.1 415.7c0 4-1.4 7.4-4.2 10s-6.5 4-10.9 4c-4.2 0-7.8-1.3-10.6-4-2.8-2.6-4.2-6-4.2-10 0-4.1 1.4-7.5 4.2-10.1 2.8-2.6 6.4-3.9 10.9-3.9 4.2 0 7.8 1.4 10.6 4.1 2.8 2.7 4.2 6 4.2 9.9zm-9.6-.3c0-2.9-.5-5.2-1.5-7.1s-2.3-2.8-4-2.8c-1.5 0-2.7.6-3.6 1.8-1.3 1.7-1.9 4.4-1.9 8.1 0 3.2.5 5.7 1.4 7.5s2.3 2.7 4.2 2.7c3.7.1 5.4-3.4 5.4-10.2z"/></g></g><path id="prefix__path4894" class="prefix__st3" d="M231.3 504.4c6.4 4.9 12.2 10.6 17.3 17.3l124-95.2c-14-18.3-27.9-32.1-46.1-46.1l-95.2 124z"/><path id="prefix__path4914" class="prefix__st15" d="M248.6 521.7c4.9 6.4 9 13.4 12.2 21.2l144.4-59.8c-8.8-21.3-18.6-38.3-32.6-56.5l-124 95.1z"/><path id="prefix__text4920" d="M344.4 495c-2.2 1.3-4.6 1.5-7 .7-3.1-1-5.8-3.6-8.3-7.9-1.6-2.8-2.5-5.5-2.5-7.9 0-2.5.8-4.2 2.5-5.1.9-.5 1.9-.7 2.8-.4.9.3 1.7 1 2.3 2.1.6 1 .8 2 .7 2.9-.1 1-.6 1.7-1.5 2.2-.7.4-1.4.5-2.2.2-.2 1.3 0 2.5.6 3.6.7 1.2 1.7 2 3.1 2.4 1.3.4 2.7.2 3.9-.5 1.3-.7 2.1-1.8 2.5-3 .4-1.3.2-2.6-.6-3.9-.8-1.3-2-2.2-3.6-2.7l-2.4-4.2 13.1-7.6 10.6 18.4-5 2.9-8.2-14.2-3.9 2.2c.7.6 1.5 1.1 2.2 1.7.9.9 1.9 2.2 2.9 4 1.7 2.9 2.4 5.7 2 8.2-.2 2.6-1.6 4.5-4 5.9z"/><path id="prefix__text4924" d="M322.9 510.3c-3.5 2-7.1 2.5-10.8 1.3-3.7-1.1-6.7-3.6-8.9-7.4-2.1-3.7-2.8-7.4-1.9-11.2.9-3.8 3.1-6.7 6.5-8.7 3.6-2.1 7.2-2.5 10.8-1.4 3.7 1.1 6.6 3.6 8.9 7.5 2.1 3.7 2.7 7.4 1.8 11.2-.8 3.8-3 6.7-6.4 8.7zm-4.5-8.5c2.5-1.4 4.3-3 5.4-4.8s1.3-3.4.4-4.8c-.7-1.3-1.9-2-3.4-2.2-2.1-.3-4.8.5-8 2.4-2.8 1.6-4.7 3.3-5.8 5-1.1 1.7-1.1 3.3-.2 5 1.8 3 5.7 2.8 11.6-.6z"/><path id="prefix__path4934" class="prefix__st7" d="M260.8 542.9c3.1 7.4 5.2 15.3 6.3 23.6l155-20.4c-3-22.8-8.1-41.8-16.9-63l-144.4 59.8z"/><path id="prefix__text4940" d="M358.6 543.8c-2.2.6-4.2-.1-6.1-2.1s-3.4-5-4.5-9c-.9-3.3-1.2-6.3-1.1-8.8.3-3.9 1.8-6.2 4.6-6.9 2.6-.7 4.9.3 6.8 3 .6.9 1.4 2.3 2.2 4.3-.3-2.8-.3-4.7 0-5.9.5-2 1.9-3.3 4.1-3.9 2.2-.6 4.2 0 6.1 1.9 1.9 1.8 3.3 4.7 4.4 8.6 1.1 3.9 1.2 7.2.6 9.9-.7 2.6-2.2 4.3-4.5 4.9-2.3.6-4.4-.3-6.2-2.7-.6-.8-1.3-2.1-2.1-3.8.3 2.1.4 3.6.2 4.7-.4 3.1-1.9 5.1-4.5 5.8zm10-12.6c1.2-.3 2.1-1 2.7-2.1s.8-2.2.5-3.3c-.3-1.2-1-2.1-1.9-2.7-1-.6-2.1-.7-3.4-.4-1.2.3-2.1 1-2.7 2s-.8 2.1-.5 3.3c.3 1.1 1 2 2 2.6 1 .8 2.1 1 3.3.6zm-11.8 3.3c1.1-.3 2-1 2.7-2.1s.8-2.3.5-3.5-1-2.1-2.1-2.7c-1.1-.6-2.3-.8-3.5-.4-1.2.3-2.2 1-2.8 2-.6 1-.8 2.2-.4 3.4.3 1.2 1 2.1 2.1 2.8 1.1.7 2.2.9 3.5.5z"/><path id="prefix__text4944" d="M335.6 551.1c-3.9 1-7.5.5-10.8-1.5-3.3-2.1-5.5-5.2-6.6-9.5-1.1-4.1-.7-7.9 1.1-11.3 1.8-3.4 4.7-5.6 8.6-6.7 4-1.1 7.6-.6 10.8 1.4 3.3 2 5.5 5.2 6.6 9.5 1.1 4.1.7 7.8-1.2 11.3-1.9 3.5-4.7 5.8-8.5 6.8zm-2.2-9.3c2.8-.7 4.9-1.8 6.4-3.2s2.1-2.9 1.7-4.5c-.4-1.4-1.3-2.4-2.7-3-2-.8-4.7-.7-8.3.2-3.1.8-5.4 1.9-6.9 3.3s-2 2.9-1.5 4.7c.9 3.4 4.7 4.2 11.3 2.5z"/><path id="prefix__path4954" class="prefix__st4" d="M267.2 566.6c1 7.9 1.1 16.1 0 24.5l155 20.4c3-22.8 3-42.4 0-65.3l-155 20.4z"/><path id="prefix__text4960" d="M363.5 591.3c-2.6 0-4.7-1-6.4-2.9-2.2-2.4-3.2-6.1-3.2-10.9 0-3.3.6-6 1.8-8.1 1.2-2.1 2.8-3.2 4.7-3.2 1.1 0 2 .4 2.6 1.1.7.7 1 1.7 1 2.9 0 1.1-.3 2.1-.9 2.9s-1.4 1.1-2.4 1.1c-.8 0-1.4-.3-2-.9-.8 1-1.3 2.2-1.3 3.5 0 1.4.5 2.6 1.5 3.6s2.2 1.5 3.7 1.5 2.7-.5 3.7-1.4 1.4-2.2 1.4-3.7-.6-2.9-1.8-4.2v-4.8h15.2V589h-5.8v-16.4h-4.5c.4.8.7 1.7 1.1 2.6.4 1.2.6 2.9.6 4.9 0 3.4-.8 6.1-2.3 8.1-1.8 2.1-3.9 3.1-6.7 3.1z"/><path id="prefix__text4964" d="M332.6 591.3c-2.6 0-4.7-1-6.4-2.9-2.2-2.4-3.2-6.1-3.2-10.9 0-3.3.6-6 1.8-8.1 1.2-2.1 2.8-3.2 4.7-3.2 1.1 0 2 .4 2.6 1.1.7.7 1 1.7 1 2.9 0 1.1-.3 2.1-.9 2.9s-1.4 1.1-2.4 1.1c-.8 0-1.4-.3-2-.9-.8 1-1.3 2.2-1.3 3.5 0 1.4.5 2.6 1.5 3.6s2.2 1.5 3.7 1.5 2.7-.5 3.7-1.4 1.4-2.2 1.4-3.7-.6-2.9-1.8-4.2v-4.8h15.2V589h-5.8v-16.4h-4.5c.4.8.7 1.7 1.1 2.6.4 1.2.6 2.9.6 4.9 0 3.4-.8 6.1-2.3 8.1-1.7 2.1-3.9 3.1-6.7 3.1z"/><path id="prefix__path4974" class="prefix__st14" d="M267.2 591c-1 7.9-3.1 15.9-6.3 23.6l144.4 59.8c8.8-21.3 13.9-40.2 16.9-63l-155-20.4z"/><path id="prefix__text4980" d="M345 638.4l4.9-18.3 5 1.3-.3 1.1c-.4 1.5-.5 2.6-.3 3.2.2.7.9 1.2 2 1.5l.8.2 3.4-12.6 3.7 1 9 18.5-1.5 5.7-13.1-3.5-1.4 5.1-3.7-1 1.4-5.1-.8-.3c-1.1-.3-1.9-.2-2.5.2s-1 1.5-1.5 3.1l-.3 1-4.8-1.1zm15.9-9.9l5.4 1.4-3.8-7.5-1.6 6.1z"/><path id="prefix__text4984" d="M327.8 635.5c-3.9-1-6.7-3.3-8.6-6.7-1.8-3.4-2.2-7.3-1-11.5 1.1-4.1 3.3-7.2 6.6-9.2 3.3-2.1 6.9-2.6 10.8-1.5 4 1.1 6.9 3.3 8.7 6.7 1.8 3.4 2.1 7.2 1 11.5-1.1 4.1-3.3 7.1-6.7 9.2-3.4 2-7 2.5-10.8 1.5zm2.8-9.2c2.8.7 5.2.9 7.2.4s3.3-1.5 3.7-3.1c.4-1.4.1-2.7-.8-3.9-1.3-1.7-3.8-3-7.4-4-3.1-.8-5.6-1-7.6-.6s-3.2 1.6-3.6 3.4c-.9 3.5 1.9 6.1 8.5 7.8z"/><path id="prefix__path4994" class="prefix__st5" d="M260.8 614.7c-3.1 7.4-7.1 14.5-12.2 21.2l124 95.1c14-18.3 23.8-35.3 32.6-56.5l-144.4-59.8z"/><path id="prefix__text5000" d="M330.1 683.9c-2-1.1-3-3.2-3-6 0-2.9.9-6 2.9-9.4 1.9-3.3 4-5.6 6.5-7s4.7-1.5 6.7-.3c1 .6 1.7 1.4 2.1 2.6.4 1.1.2 2.2-.4 3.2-.5.9-1.3 1.6-2.4 1.9-1.1.3-2.1.3-3-.3-1-.6-1.6-1.5-1.7-2.8-1.4.4-2.5 1.3-3.3 2.7-.9 1.5-1.2 2.9-1 4.3s.9 2.4 2.1 3.1c1.2.7 2.3.7 3.5.2s2.2-1.6 3.2-3.3c.1-.2.2-.3.2-.4 0 0 0-.1.1-.1l3.4 2c-.2.2-.3.4-.4.5-1 1.7-1.4 3-1.2 4.2.1 1.1.7 2 1.9 2.7 1.2.7 2.4.8 3.6.4 1.2-.4 2.2-1.4 3-2.8.8-1.3 1-2.7.8-4.2-.6.2-1.1.3-1.7.3s-1.1-.1-1.5-.4c-.9-.5-1.5-1.3-1.8-2.4s-.1-2.1.5-3.2c.6-1 1.4-1.7 2.5-2s2.2-.1 3.3.5c1.8 1 2.7 2.9 2.8 5.5 0 2.6-.9 5.5-2.7 8.7-2 3.4-4.1 5.8-6.5 7.2-2.3 1.4-4.5 1.5-6.6.3-2.3-1.3-3.1-3.4-2.5-6.4.2-1 .7-2.3 1.5-4.1-2.2 2.7-3.8 4.3-5 5-2.1 1.1-3.9.9-5.9-.2z"/><path id="prefix__text5004" d="M307.9 673.3c-3.5-2-5.7-4.9-6.5-8.7-.9-3.8-.2-7.6 2-11.4 2.1-3.7 5-6.1 8.7-7.2 3.7-1.1 7.3-.7 10.8 1.3 3.6 2.1 5.8 4.9 6.7 8.7.9 3.7.2 7.5-2 11.4-2.1 3.7-5.1 6-8.8 7.2s-7.5.7-10.9-1.3zm5.1-8.1c2.5 1.4 4.8 2.2 6.9 2.3s3.6-.6 4.4-2c.7-1.3.8-2.6.2-4-.8-2-2.8-3.9-6.1-5.7-2.8-1.6-5.2-2.4-7.2-2.5s-3.5.7-4.4 2.3c-1.8 2.9.2 6.2 6.2 9.6z"/><path id="prefix__path5014" class="prefix__st3" d="M248.6 635.9c-4.9 6.4-10.6 12.2-17.3 17.3l95.2 124c18.3-14 32.1-27.9 46.1-46.1l-124-95.2z"/><path id="prefix__path5034" class="prefix__st15" d="M231.3 653.2c-6.4 4.9-13.4 9-21.2 12.2l59.8 144.4c21.3-8.8 38.3-18.6 56.5-32.6l-95.1-124z"/><path id="prefix__text5040" d="M258 749c-1.3-2.2-1.5-4.6-.7-7 1-3.1 3.6-5.8 7.9-8.3 2.8-1.6 5.5-2.5 7.9-2.5 2.5 0 4.2.8 5.1 2.5.5.9.7 1.9.4 2.8-.3.9-1 1.7-2.1 2.3-1 .6-2 .8-2.9.7-1-.1-1.7-.6-2.2-1.5-.4-.7-.5-1.4-.2-2.2-1.3-.2-2.5 0-3.6.6-1.2.7-2 1.7-2.4 3.1-.4 1.3-.2 2.7.5 3.9.7 1.3 1.8 2.1 3 2.5 1.3.4 2.6.2 3.9-.6s2.2-2 2.7-3.6l4.2-2.4 7.6 13.1-18.5 10.6-2.9-5 14.2-8.2-2.2-3.9c-.6.7-1.1 1.5-1.7 2.2-.9.9-2.2 1.9-4 2.9-2.9 1.7-5.7 2.4-8.2 2-2.5-.2-4.4-1.6-5.8-4z"/><path id="prefix__text5044" d="M242.7 727.5c-2-3.5-2.5-7.1-1.3-10.8 1.1-3.7 3.6-6.7 7.4-8.9 3.7-2.1 7.4-2.8 11.2-1.9 3.8.9 6.7 3.1 8.7 6.5 2.1 3.6 2.5 7.2 1.4 10.8-1.1 3.7-3.6 6.6-7.5 8.9-3.7 2.1-7.4 2.7-11.2 1.8-3.8-.8-6.7-3-8.7-6.4zm8.5-4.5c1.4 2.5 3 4.3 4.8 5.4 1.8 1.1 3.4 1.3 4.8.4 1.3-.7 2-1.9 2.2-3.4.3-2.1-.5-4.8-2.4-8-1.6-2.8-3.3-4.7-5-5.8-1.7-1.1-3.3-1.1-5-.2-3 1.8-2.8 5.7.6 11.6z"/><path id="prefix__path5054" class="prefix__st6" d="M210.1 665.5c-7.4 3.1-15.3 5.2-23.6 6.3l20.4 155c22.8-3 41.8-8.1 63-16.9l-59.8-144.4z"/><path id="prefix__path5074" class="prefix__st5" d="M186.4 671.8c-7.9 1-16.1 1.1-24.5 0l-20.4 155c22.8 3 42.4 3 65.3 0l-20.4-155z"/><path id="prefix__text5080" d="M160.2 772.7c0-4.2 1.4-7.7 4.3-10.2 2.9-2.6 6.7-3.9 11.5-3.9 3.2 0 5.8.5 7.7 1.4s2.8 2.3 2.8 4c0 1-.3 1.8-1 2.4-.7.6-1.7.9-3 .9-1.2 0-2.1-.2-2.8-.7s-1.1-1.2-1.1-2c0-.5.2-.9.6-1.2-.9-1-2.1-1.5-3.6-1.5-2.3 0-3.9.9-4.9 2.7-.6 1.2-.9 2.7-.9 4.5v1.2c2-1.6 4.5-2.4 7.5-2.4 3.1 0 5.7.9 7.8 2.6 2.1 1.7 3.1 3.9 3.1 6.6 0 3.3-1.5 5.9-4.5 7.6-2.5 1.5-5.4 2.2-8.9 2.2-4.4 0-8-1.3-10.7-3.8-2.6-2.6-3.9-6-3.9-10.4zm9.4 4.5c0 1.6.4 2.9 1.3 4s2 1.7 3.2 1.7c1.3 0 2.3-.5 3.2-1.5s1.3-2.3 1.3-4c0-1.6-.4-2.9-1.3-3.9-.9-1.1-2-1.6-3.4-1.6-1.2 0-2.3.5-3.2 1.5-.7 1-1.1 2.3-1.1 3.8z"/><path id="prefix__text5084" d="M159.2 741.9c0-4 1.4-7.4 4.2-10s6.5-4 10.9-4c4.2 0 7.8 1.3 10.6 4 2.8 2.6 4.2 6 4.2 10 0 4.1-1.4 7.5-4.2 10.1s-6.4 3.9-10.9 3.9c-4.2 0-7.8-1.4-10.6-4.1-2.8-2.7-4.2-6-4.2-9.9zm9.5.3c0 2.9.5 5.2 1.5 7.1 1 1.9 2.3 2.8 4 2.8 1.5 0 2.7-.6 3.6-1.8 1.3-1.7 1.9-4.4 1.9-8.1 0-3.2-.5-5.7-1.4-7.5s-2.3-2.7-4.2-2.7c-3.6-.1-5.4 3.4-5.4 10.2z"/><path id="prefix__path5094" d="M161.9 671.8c-8.3-1.1-16.3-3.2-23.7-6.3L78.5 809.8c21.3 8.8 40.2 13.9 63.1 16.9l20.3-154.9z"/><path id="prefix__path5100" class="prefix__st4" d="M138.3 665.4c-7.4-3.1-14.5-7.1-21.2-12.2L22 777.2c18.3 14 35.3 23.8 56.5 32.6l59.8-144.4z"/><path id="prefix__text5106" d="M67.2 736c1.4-2.4 3.7-3.8 6.8-4.2 3.1-.4 6.3.4 9.7 2.4 3.8 2.2 6.3 5.1 7.3 8.6s.5 7.2-1.7 10.9c-2.1 3.7-5.1 5.9-8.9 6.7s-7.8 0-11.9-2.4c-2.8-1.6-4.8-3.3-6-5.1s-1.3-3.4-.4-4.9c.5-.8 1.2-1.4 2.1-1.5.9-.2 2 .1 3.1.7 1 .6 1.7 1.3 2.1 2.1s.4 1.6 0 2.3c-.2.4-.7.7-1.2.7.2.8.5 1.4.8 1.8.3.4.9.9 1.6 1.3 2 1.2 3.9 1.2 5.7 0 1.2-.7 2.2-1.9 3.1-3.5.1-.2.2-.4.3-.5.1-.1.1-.3.2-.4-1.4.1-2.7.1-3.9-.2-1.1-.3-2.4-.8-3.8-1.6-2.7-1.6-4.5-3.6-5.5-6.1-1-2.3-.8-4.7.5-7.1zm8.4 4.4c-.8 1.4-1.1 2.7-.8 4.1.2 1.4.9 2.4 2.1 3.1 1.1.6 2.2.7 3.5.3s2.3-1.3 3.1-2.7c.8-1.3 1.1-2.7.9-4.1-.2-1.4-.9-2.4-2-3.1-1.1-.6-2.3-.7-3.6-.2-1.4.4-2.5 1.3-3.2 2.6z"/><path id="prefix__text5110" d="M79.7 712.5c2-3.5 4.9-5.7 8.7-6.5 3.8-.9 7.6-.2 11.4 2 3.7 2.1 6.1 5 7.2 8.7s.7 7.3-1.3 10.8c-2.1 3.6-4.9 5.8-8.7 6.7-3.7.9-7.5.2-11.4-2-3.7-2.1-6-5.1-7.2-8.8-1.1-3.9-.7-7.5 1.3-10.9zm8.1 5.1c-1.4 2.5-2.2 4.8-2.3 6.9-.1 2.1.6 3.6 2 4.4 1.3.7 2.6.8 4 .2 2-.8 3.9-2.8 5.7-6.1 1.6-2.8 2.4-5.2 2.5-7.2s-.7-3.5-2.3-4.4c-2.9-1.8-6.2.3-9.6 6.2z"/><path id="prefix__path5120" class="prefix__st14" d="M117.1 653.2c-6.4-4.9-12.2-10.6-17.3-17.3l-124 95.2c14 18.3 27.9 32.1 46.1 46.1l95.2-124z"/><path id="prefix__text5126" d="M37.2 696.9l13.4 13.4-3.6 3.6-.8-.8c-1.1-1.1-2-1.7-2.7-1.8s-1.5.2-2.3 1l-.6.6 9.2 9.2-2.7 2.7-20.6-1.4-4.2-4.2 9.6-9.6-3.7-3.7 2.7-2.7 3.7 3.7.6-.6c.8-.8 1.2-1.6 1.1-2.3-.1-.7-.7-1.6-1.9-2.8l-.8-.8 3.6-3.5zm.6 18.8l-4 4 8.4.5-4.4-4.5z"/><path id="prefix__text5130" d="M48.3 683.5c2.8-2.8 6.2-4.2 10.1-4.1 3.9.1 7.4 1.8 10.5 4.9 3 3 4.6 6.4 4.7 10.3.1 3.9-1.2 7.2-4.1 10.1-2.9 2.9-6.3 4.3-10.1 4.2s-7.3-1.8-10.5-4.9c-3-3-4.5-6.5-4.6-10.4-.1-4 1.2-7.3 4-10.1zm6.5 7c-2 2-3.3 4-4 6-.6 2-.3 3.6.8 4.8 1 1 2.3 1.5 3.8 1.2 2.1-.3 4.5-1.8 7.1-4.4 2.3-2.3 3.7-4.4 4.3-6.3.6-1.9.2-3.5-1.1-4.8-2.4-2.5-6.1-1.3-10.9 3.5z"/><path id="prefix__path5140" class="prefix__st15" d="M99.8 635.9c-4.9-6.4-9-13.4-12.2-21.2l-144.4 59.8c8.8 21.3 18.6 38.3 32.6 56.5l124-95.1z"/></g><path id="prefix__path3911_00000147929482411732830270000015719193351948080043_" class="prefix__st1" d="M200.1 491.9c2.1.6 3.8.6 5.3 0 1.5-.5 2.4-1.5 2.8-3 .4-1.5.1-2.8-.9-4s-2.6-2.1-4.6-2.7-3.8-.6-5.2 0c-1.4.5-2.4 1.5-2.8 2.9-.4 1.5-.1 2.8.9 4 1 1.3 2.5 2.2 4.5 2.8zm-11.9-3.4c1.3.4 2.4.4 3.3 0 .9-.3 1.5-1 1.8-1.9s.2-1.7-.3-2.3c-.5-.6-1.4-1.2-2.8-1.8l-1.9-.8c-.8-.3-1.3-.6-1.5-.8-.2-.1-.2-.3-.1-.6s.4-.5.8-.6c.5-.1 1 0 1.7.2.9.3 1.7.7 2.4 1.2.7.6 1.1 1.3 1.1 2l1.5.4.9-3.2-1.4-.4c-.2.4-.5.6-.9.4l-1.8-1.2c-.6-.4-1.3-.7-2.2-.9-1.3-.4-2.4-.4-3.2-.1s-1.4 1-1.7 1.9c-.2.8-.2 1.5.1 2.1s.8 1.1 1.6 1.5l4.2 1.7c.5.2.7.5.6.9-.1.3-.4.5-.8.6-.4.1-.9 0-1.5-.1-1.1-.3-2-.8-2.7-1.5-.5-.5-.7-1-.8-1.5l-1.4-.4-.8 2.9 1.4.4c.1-.3.3-.5.6-.4.7.4 1.3.8 2 1.1.6.7 1.2 1 1.8 1.2zm30.7 8.2l.5-1.7-.3-.1c-.8-.2-1.3-.5-1.4-.9-.1-.2 0-.6.1-1.1l.5-1.9c.2-.9.5-1.4.8-1.6.3-.1.8-.1 1.5.1l.3.1.5-1.7-11.2-3.1-1 3.4 1.8.5c.3-.7.6-1.1.9-1.3.3-.2.8-.1 1.4.1l2.4.7-1 3.5c-.2.9-.5 1.4-.9 1.6-.3.1-.7.1-1.4-.1l-.3-.1-.5 1.7 7.3 1.9zM181 486.2l.5-1.7-.4-.1c-.7-.2-1.2-.5-1.4-.9-.1-.3-.1-.6 0-1.2l.5-1.9c.2-.9.5-1.4.8-1.6.3-.1.8-.1 1.5.1l.3.1.5-1.7-11.9-3.3-1 3.5 1.7.5c.2-.7.5-1.2.9-1.3.3-.1.9-.1 1.6.1l3 .8-.5 1.9-.5-.1c-.6-.2-1.1-.4-1.2-.6-.2-.2-.2-.5-.1-.9l-1.7-.5-1.1 3.9 1.7.5c.1-.4.3-.7.5-.8.2-.1.6-.1 1.1 0l.8.2-.5 1.9-3-.8c-.7-.2-1.1-.4-1.3-.6-.3-.3-.4-.9-.2-1.7l-1.7-.5-.9 3.4 12 3.3zm19.5 4c-.9-.3-1.6-.8-2.1-1.6s-.6-1.6-.3-2.5.8-1.6 1.6-2 1.7-.5 2.6-.3c1 .3 1.7.8 2.2 1.6.5.8.6 1.6.3 2.6-.3.9-.8 1.6-1.6 2-.8.4-1.7.5-2.7.2zm-1.4-13.8l4.9-4.6c.6-.6 1.1-.9 1.4-1s.8-.1 1.4.1l.5-1.7-5.6-1.5-.5 1.7h.1s.1 0 .2.1c.3.1.6.2.8.3.3.2.4.4.3.6 0 .1-.2.3-.4.4l-4.2-1.2c-.1-.3-.1-.5-.1-.6.1-.2.2-.3.5-.4.2 0 .6.1 1.3.3l.5-1.7-7-1.9-.5 1.7c.4.2.7.3.9.6.4.4.6 1 .9 1.7l1.8 6.4 2.8.7zm.2-2.7l-.7-2.4 2.4.7-1.7 1.7zm17.2-6.9l2.5-9-4.5-1.2c-.5 1.6-1 2.7-1.8 3.2-.9.6-2.3.6-4.1.1l-1.8-.5 2.5-9c.6-2.1 1.3-3.4 2-3.9s2-.4 3.9.1l1 .2 1.2-4.4-19-5.3-1.2 4.4 1 .3c1.8.5 3 1.2 3.4 1.9.4.8.3 2.2-.3 4.3l-2.5 9-1.8-.5c-1.9-.5-3.1-1.3-3.6-2.3-.3-.8-.2-1.9.2-3.5l-4.5-1.2-2.5 9 29.9 8.3zm6.9-24.5l1-3.5-.7-.2c-1.5-.4-2.5-1-2.9-1.6-.2-.4-.3-1 0-1.9l.2-.7.8-2.8c.8-3 .6-5.5-.6-7.5-1.3-2.2-3.9-3.8-7.7-4.9-3.3-.9-6.2-.9-8.5 0s-3.8 2.6-4.5 5.1l-.9 3.2c-.5 1.7-1.1 2.8-1.8 3.1-.6.3-1.5.2-2.8-.1l-.6-.1-1 3.5 12.2 3.4 1-3.5-.6-.2c-1.5-.4-2.5-1-2.9-1.7-.2-.4-.3-1.1 0-1.9l.2-.5.9-3.1c.6-2.2 1.7-3.5 3.3-3.9 1-.3 2.3-.2 3.8.2 2 .5 3.2 1.4 3.9 2.7.7 1.2.7 3 .1 5.2l-.3 1.2c-.5 1.7-1.1 2.8-1.8 3.2-.5.3-1.5.2-2.8-.2l-.7-.2-1 3.5 14.7 4.2zm2.7-21.5l.8-3-.5-.2c-1.3-.4-2.1-.8-2.3-1.4-.2-.5-.1-1.5.2-2.8l.7-2.7c.4-1.4.8-2.3 1.3-2.6.5-.3 1.4-.3 2.6.1l.5.1.8-3-12.6-3.5-.8 3 .5.2c1.3.4 2 .7 2.3 1.2s.2 1.3-.1 2.5l-.2.5-4.3-1.2c-1.2-.3-1.8-1.1-1.7-2.3.1-1.2.2-2.4.3-3.5-.2-1.3-1.4-2.3-3.5-2.9-1.4-.4-2.5-.4-3.4.1-.9.4-1.5 1.2-1.8 2.3l-.6 2 1.8.5.5-1.7c.1-.5.3-.7.4-.8.1-.1.3-.1.6 0 .4.1.5.6.3 1.3l-.3 1c-.3 1.1-.2 2 .5 2.8.5.6 1.3 1.1 2.4 1.4-1-.1-1.9-.2-2.4-.1-1.7.3-2.7 1.1-3.2 2.6-.4 1.3-.1 2.4.8 3.4s2.3 1.7 4.4 2.3l16 4.4zm-8.1-5.4l-4.5-1.3c-1.6-.4-2.2-1.1-1.9-2.1s1.4-1.3 3.3-.7l4 1.1-.9 3zm12.1-12.4l.7-2.5-.5-.1c-1.2-.3-1.9-.8-2.1-1.4-.1-.3-.1-.8.1-1.5l.8-3c.3-1.1.6-1.9 1-2.1.4-.3 1.2-.4 2.4-.1l.5.1.7-2.5-8.8-2.4-.7 2.5.5.1c1 .3 1.7.7 1.9 1.1.2.5.2 1.3-.2 2.5l-.7 2.7L217 385l-2.5-.7-2.2 7.9c-.3 1.1-.6 1.8-.9 2.1-.4.4-1.3.4-2.5.1l-.4-.1-.7 2.5 8.9 2.5.7-2.5-.5-.1c-1-.3-1.7-.7-2-1.2-.2-.3-.2-.8-.1-1.3 0-.1.1-.2.1-.3 0-.1.1-.2.1-.3l.7-2.4 7.6 10 6.8 1.8z"/><linearGradient id="prefix__SVGID_1_" gradientUnits="userSpaceOnUse" x1="256.05" y1="700.044" x2="256.05" y2="595.67" gradientTransform="matrix(1 0 0 -1 0 724)"><stop offset="0" stop-color="#1e9600"/><stop offset=".054" stop-color="#239800"/><stop offset=".121" stop-color="#339e00"/><stop offset=".194" stop-color="#4ca900"/><stop offset=".273" stop-color="#6fb700"/><stop offset=".355" stop-color="#9cca00"/><stop offset=".44" stop-color="#d3e000"/><stop offset=".501" stop-color="#fff200"/><stop offset=".891" stop-color="#ff3500"/><stop offset="1" stop-color="red"/></linearGradient><path d="M256.5 30.1h-1.2c-1.3 0-2.5-.2-3.6-.5-1-.3-1.8-.7-2.4-1.1-.6-.5-1.1-1-1.4-1.6s-.6-1.2-.7-1.8-.2-1.1-.2-1.7v-.1h5.6c.2 1.7 1.3 2.6 3.3 2.6h.2c1.1 0 2-.3 2.5-.9s.8-1.4.8-2.4V15h5.7v7.6c0 .5 0 1-.1 1.4s-.2.9-.3 1.4c-.2.5-.4 1-.6 1.4-.3.4-.6.9-1 1.3s-1 .8-1.5 1c-.6.3-1.3.5-2.1.7-1.1.2-2 .3-3 .3z" fill="url(#prefix__SVGID_1_)"/><linearGradient id="prefix__SVGID_00000164504576558227940790000002802841240859350195_" gradientUnits="userSpaceOnUse" x1="256.3" y1="700.044" x2="256.3" y2="595.67" gradientTransform="matrix(1 0 0 -1 0 724)"><stop offset="0" stop-color="#1e9600"/><stop offset=".054" stop-color="#239800"/><stop offset=".121" stop-color="#339e00"/><stop offset=".194" stop-color="#4ca900"/><stop offset=".273" stop-color="#6fb700"/><stop offset=".355" stop-color="#9cca00"/><stop offset=".44" stop-color="#d3e000"/><stop offset=".501" stop-color="#fff200"/><stop offset=".891" stop-color="#ff3500"/><stop offset="1" stop-color="red"/></linearGradient><path d="M261.5 47.9l-1.2-2.4h-8.5l-1.1 2.4h-5.8l7.4-14.9h7.6l7.8 14.9h-6.2zm-3-6.1l-2.5-5.1-2.4 5.1h4.9z" fill="url(#prefix__SVGID_00000164504576558227940790000002802841240859350195_)"/><linearGradient id="prefix__SVGID_00000089574381520722069160000013274508503131684534_" gradientUnits="userSpaceOnUse" x1="256.4" y1="700.044" x2="256.4" y2="595.67" gradientTransform="matrix(1 0 0 -1 0 724)"><stop offset="0" stop-color="#1e9600"/><stop offset=".054" stop-color="#239800"/><stop offset=".121" stop-color="#339e00"/><stop offset=".194" stop-color="#4ca900"/><stop offset=".273" stop-color="#6fb700"/><stop offset=".355" stop-color="#9cca00"/><stop offset=".44" stop-color="#d3e000"/><stop offset=".501" stop-color="#fff200"/><stop offset=".891" stop-color="#ff3500"/><stop offset="1" stop-color="red"/></linearGradient><path d="M256.8 66.2h-.8c-1.7 0-3.3-.2-4.6-.5s-2.3-.8-3.1-1.3-1.3-1.1-1.8-1.8-.7-1.4-.9-2c-.1-.6-.2-1.2-.2-1.9v-.6c0-.7.1-1.3.2-1.9.1-.6.4-1.2.9-1.9.4-.7 1-1.3 1.8-1.8.7-.5 1.8-.9 3.1-1.3 1.3-.3 2.9-.5 4.6-.5h.8c1.2 0 2.4.1 3.4.2s1.9.4 2.6.6c.7.3 1.3.6 1.9.9.5.4 1 .7 1.3 1.1.3.4.6.7.8 1.1.2.4.3.8.4 1.1s.1.6.1.9v.4h-5.9c-.5-1.5-2.1-2.3-4.9-2.3-3.3 0-5 1.2-5 3.5v.2c0 .4.1.9.2 1.3.2.4.4.8.8 1.2.4.4.9.7 1.6.9.7.2 1.5.3 2.5.3.8 0 1.6-.1 2.2-.2.6-.2 1.1-.3 1.4-.5s.6-.4.8-.7c.2-.3.3-.5.4-.6 0-.1.1-.3.1-.4h5.9v.3c0 .5-.1.9-.2 1.4s-.4 1-.9 1.6-1 1.1-1.8 1.6c-.7.4-1.7.8-3 1.1-1.5.3-3 .5-4.7.5z" fill="url(#prefix__SVGID_00000089574381520722069160000013274508503131684534_)"/><linearGradient id="prefix__SVGID_00000161599448373530192130000009484938379762164881_" gradientUnits="userSpaceOnUse" x1="256.95" y1="700.044" x2="256.95" y2="595.67" gradientTransform="matrix(1 0 0 -1 0 724)"><stop offset="0" stop-color="#1e9600"/><stop offset=".054" stop-color="#239800"/><stop offset=".121" stop-color="#339e00"/><stop offset=".194" stop-color="#4ca900"/><stop offset=".273" stop-color="#6fb700"/><stop offset=".355" stop-color="#9cca00"/><stop offset=".44" stop-color="#d3e000"/><stop offset=".501" stop-color="#fff200"/><stop offset=".891" stop-color="#ff3500"/><stop offset="1" stop-color="red"/></linearGradient><path d="M252.5 83.9h-5.7V69h5.7v5.9l7.3-5.9h7.1l-8.7 6.8 8.9 8.1h-7.4l-7.3-6.7v6.7h.1z" fill="url(#prefix__SVGID_00000161599448373530192130000009484938379762164881_)"/><linearGradient id="prefix__SVGID_00000091701641805343661150000010899586619413070527_" gradientUnits="userSpaceOnUse" x1="256.65" y1="700.044" x2="256.65" y2="595.67" gradientTransform="matrix(1 0 0 -1 0 724)"><stop offset="0" stop-color="#1e9600"/><stop offset=".054" stop-color="#239800"/><stop offset=".121" stop-color="#339e00"/><stop offset=".194" stop-color="#4ca900"/><stop offset=".273" stop-color="#6fb700"/><stop offset=".355" stop-color="#9cca00"/><stop offset=".44" stop-color="#d3e000"/><stop offset=".501" stop-color="#fff200"/><stop offset=".891" stop-color="#ff3500"/><stop offset="1" stop-color="red"/></linearGradient><path d="M259.3 97.2h-6.7v4.7h-5.7V87h12.4c4.7 0 7.1 1.6 7.1 4.9v.3c-.1 3.4-2.4 5-7.1 5zm-6.7-6.5v2.8h6c1.3 0 1.9-.5 1.9-1.4V92c0-.9-.6-1.4-1.9-1.4l-6 .1z" fill="url(#prefix__SVGID_00000091701641805343661150000010899586619413070527_)"/><linearGradient id="prefix__SVGID_00000153675733145267596060000001689466687907525021_" gradientUnits="userSpaceOnUse" x1="256.3" y1="700.044" x2="256.3" y2="595.67" gradientTransform="matrix(1 0 0 -1 0 724)"><stop offset="0" stop-color="#1e9600"/><stop offset=".054" stop-color="#239800"/><stop offset=".121" stop-color="#339e00"/><stop offset=".194" stop-color="#4ca900"/><stop offset=".273" stop-color="#6fb700"/><stop offset=".355" stop-color="#9cca00"/><stop offset=".44" stop-color="#d3e000"/><stop offset=".501" stop-color="#fff200"/><stop offset=".891" stop-color="#ff3500"/><stop offset="1" stop-color="red"/></linearGradient><path d="M255.9 104.7h.9c1.3 0 2.5.1 3.6.3 1.1.2 2 .4 2.7.7.7.3 1.4.6 1.9 1.1.6.4 1 .8 1.3 1.3.3.4.6.9.8 1.4s.3 1 .4 1.4.1.8.1 1.3v.6c0 .5 0 .9-.1 1.3s-.2.9-.4 1.4c-.2.5-.4 1-.8 1.4s-.8.9-1.3 1.3c-.6.4-1.2.8-1.9 1.1-.7.3-1.6.5-2.7.7s-2.3.3-3.6.3h-.9c-1.3 0-2.5-.1-3.6-.3-1.1-.2-2-.4-2.7-.7-.7-.3-1.4-.7-2-1.1s-1-.9-1.3-1.3-.6-.9-.8-1.4-.3-1-.4-1.4c-.1-.4-.1-.8-.1-1.3v-.6c0-.5 0-.9.1-1.3s.2-.9.4-1.4.4-1 .8-1.4c.3-.4.8-.9 1.3-1.3s1.2-.8 2-1.1c.7-.3 1.7-.5 2.7-.7 1-.2 2.2-.3 3.6-.3zm5.8 7.8v-.3c0-.4-.1-.9-.2-1.2-.2-.4-.4-.8-.8-1.1s-.9-.6-1.7-.9c-.7-.2-1.6-.3-2.7-.3s-2 .1-2.7.3c-.7.2-1.3.5-1.7.9s-.6.7-.8 1.1-.2.8-.2 1.2v.2c0 .4.1.9.2 1.2.2.4.4.8.8 1.2.4.4.9.7 1.7.9.8.2 1.7.3 2.7.3s1.9-.1 2.7-.3c.8-.2 1.3-.5 1.7-.9.4-.4.6-.8.8-1.1.1-.3.2-.7.2-1.2z" fill="url(#prefix__SVGID_00000153675733145267596060000001689466687907525021_)"/><linearGradient id="prefix__SVGID_00000124132211588896233440000010536662103834219957_" gradientUnits="userSpaceOnUse" x1="256.25" y1="700.044" x2="256.25" y2="595.67" gradientTransform="matrix(1 0 0 -1 0 724)"><stop offset="0" stop-color="#1e9600"/><stop offset=".054" stop-color="#239800"/><stop offset=".121" stop-color="#339e00"/><stop offset=".194" stop-color="#4ca900"/><stop offset=".273" stop-color="#6fb700"/><stop offset=".355" stop-color="#9cca00"/><stop offset=".44" stop-color="#d3e000"/><stop offset=".501" stop-color="#fff200"/><stop offset=".891" stop-color="#ff3500"/><stop offset="1" stop-color="red"/></linearGradient><path d="M253.4 137.9v-10.8H247V123h18.5v4.1h-6.4v10.8h-5.7z" fill="url(#prefix__SVGID_00000124132211588896233440000010536662103834219957_)"/><path id="prefix__text4940_00000025426479788237550310000017534353920284748204_" d="M291.1 440.3c-.7-2.2-.2-4.2 1.7-6.2s4.8-3.7 8.7-5.1c3.2-1.1 6.2-1.6 8.7-1.6 3.9.1 6.3 1.4 7.2 4.2.9 2.6 0 4.9-2.6 7-.9.7-2.2 1.5-4.2 2.5 2.8-.5 4.7-.6 5.9-.4 2 .4 3.4 1.7 4.1 3.8.7 2.2.3 4.2-1.5 6.2-1.7 2-4.5 3.6-8.3 4.9s-7.1 1.6-9.8 1.2c-2.6-.5-4.4-1.9-5.2-4.2-.7-2.3 0-4.4 2.3-6.4.8-.6 2-1.4 3.7-2.3-2.1.4-3.6.6-4.7.5-3-.1-5.1-1.5-6-4.1zm13.2 9.2c.4 1.2 1.1 2 2.3 2.6 1.1.5 2.2.7 3.3.3 1.2-.4 2-1.1 2.6-2.1.5-1 .6-2.1.2-3.4-.4-1.2-1.1-2-2.2-2.6-1-.5-2.1-.7-3.3-.3-1.1.4-1.9 1.1-2.5 2.2-.7 1-.8 2.1-.4 3.3zm-4-11.5c.4 1.1 1.1 1.9 2.3 2.6 1.1.6 2.3.7 3.5.3 1.2-.4 2-1.1 2.6-2.3.5-1.1.7-2.3.2-3.5-.4-1.2-1.1-2.1-2.2-2.7-1-.5-2.2-.7-3.4-.2-1.2.4-2 1.1-2.7 2.3-.6 1.1-.8 2.2-.3 3.5z"/><path id="prefix__text4944_00000111884739194996100930000011953128379782527140_" d="M282.4 417.8c-1.2-3.8-1-7.5.8-10.9 1.9-3.4 4.8-5.8 9.1-7.2 4-1.4 7.8-1.2 11.3.4s5.9 4.3 7.2 8.2c1.3 3.9 1.1 7.5-.7 10.9-1.8 3.4-4.8 5.8-9.1 7.2-4 1.4-7.7 1.2-11.4-.5-3.5-1.7-6-4.3-7.2-8.1zm9.2-2.7c.9 2.8 2.1 4.8 3.6 6.2 1.5 1.4 3 1.9 4.6 1.4 1.4-.5 2.3-1.4 2.8-2.9.7-2 .4-4.7-.7-8.3-1-3-2.2-5.3-3.7-6.7-1.5-1.4-3-1.8-4.8-1.2-3.4 1.1-4 5-1.8 11.5z"/><path id="prefix__path3911_00000005987254775230404020000005952170285881151674_" d="M411.9 93.4c-1.6-1.5-3-2.4-4.6-2.7-1.5-.3-2.8.1-3.9 1.2s-1.5 2.4-1.2 3.9c.3 1.6 1.2 3.1 2.7 4.7 1.6 1.5 2.9 2.4 4.5 2.6 1.5.3 2.8-.1 3.8-1.1 1.1-1.1 1.5-2.4 1.2-3.9-.2-1.8-1-3.3-2.5-4.7zm8.7 8.8c-.9-1-1.9-1.5-2.8-1.7-1-.1-1.8.1-2.5.7s-1 1.3-.9 2.1.7 1.8 1.6 3l1.2 1.6c.5.6.8 1.2.9 1.4.1.2 0 .4-.2.5-.2.2-.6.3-1 .1-.4-.2-.9-.5-1.3-1-.6-.7-1.1-1.4-1.5-2.3-.3-1-.3-1.7.1-2.2l-1.1-1.1-2.4 2.3 1 1c.3-.3.7-.3.9 0 .3.6.6 1.3.9 1.9s.8 1.3 1.4 1.9c.9 1 1.9 1.5 2.8 1.7s1.7-.2 2.4-.8c.6-.6.8-1.2.9-1.9.1-.7-.2-1.4-.6-2.1l-2.7-3.6c-.3-.5-.4-.8-.1-1.1.2-.2.6-.2 1-.1s.8.4 1.2.8c.8.8 1.3 1.7 1.6 2.7.2.7.1 1.2 0 1.7l1 1 2-1.9-1-1c-.2.2-.5.3-.7 0-.4-.7-.7-1.3-1.1-2-.1-.6-.7-1.1-1-1.6zm-22.5-22.4l-1.2 1.3.2.2c.6.6.9 1.1.7 1.5 0 .2-.3.5-.6.9l-1.4 1.4c-.7.6-1.2 1-1.5 1-.4 0-.7-.3-1.2-.8l-.2-.2-1.2 1.3 8.2 8.4 2.5-2.5-1.3-1.3c-.6.4-1.1.7-1.4.7-.4 0-.7-.3-1.2-.8l-1.7-1.8 2.6-2.5c.7-.6 1.2-.9 1.6-.9.3.1.6.3 1.1.7l.2.2 1.2-1.3-5.4-5.5zm27.5 28.1l-1.2 1.3.3.3c.5.5.8 1 .7 1.4-.1.3-.2.6-.6 1l-1.4 1.4c-.7.6-1.2 1-1.5 1-.4 0-.7-.3-1.2-.8l-.2-.2-1.2 1.3 8.6 8.8 2.6-2.5-1.3-1.2c-.5.5-1 .8-1.4.7-.4 0-.8-.4-1.3-.9l-2.2-2.2 1.4-1.4.3.4c.5.4.7.9.8 1.2.1.3-.1.5-.4.9l1.3 1.2 2.9-2.8-1.3-1.3c-.3.3-.6.4-.8.4-.2 0-.6-.2-.9-.5l-.6-.6 1.2-1.7 2.2 2.2c.5.5.7.9.8 1.2.1.4-.2.9-.6 1.5l1.3 1.2 2.5-2.5-8.8-8.8zm-14.9-13.3c.6.7 1 1.5 1 2.4s-.3 1.7-1 2.3c-.7.6-1.4.9-2.4.9-.9 0-1.7-.4-2.4-1-.8-.7-1.1-1.6-1.1-2.5s.3-1.7 1-2.4c.6-.7 1.5-1 2.5-.9 1 .1 1.8.4 2.4 1.2zm-5.6 12.7l-6.6 1.5c-.8.2-1.3.3-1.7.2-.4-.1-.8-.4-1.2-.8l-1.2 1.3 4.1 4.1 1.2-1.3v-.1s0-.1-.1-.2c-.2-.2-.4-.5-.5-.7-.2-.3-.2-.6.1-.7.1 0 .3-.1.6-.2l3 3.1c-.1.3-.2.5-.2.6-.1.2-.3.2-.5.1s-.6-.4-.9-.8l-1.2 1.3 5.1 5.2 1.2-1.3c-.3-.3-.5-.6-.5-1-.1-.5-.1-1.1.1-1.9l1.6-6.4-2.4-2zm-1.5 2.3l-.6 2.4-1.8-1.7 2.4-.7zm-18.4-2.8l-6.7 6.5 3.3 3.3c1.2-1.1 2.3-1.9 3.2-1.9 1 0 2.3.6 3.6 2l1.3 1.3-6.7 6.5c-1.5 1.6-2.8 2.3-3.6 2.4-.9 0-2-.6-3.3-2l-.8-.7-3.2 3.2 13.8 14.1 3.2-3.2-.7-.8c-1.4-1.4-2-2.5-1.9-3.4s.9-2.1 2.5-3.6l6.7-6.5 1.3 1.3c1.4 1.4 2.1 2.7 1.9 3.8-.1.9-.8 1.8-1.9 2.9l3.3 3.3 6.7-6.5-22-22zm-18.3 17.8l-2.6 2.5.5.5c1.1 1.2 1.8 2.1 1.7 2.8 0 .4-.3 1.1-.9 1.7l-.5.5-2.1 2c-2.2 2.2-3.4 4.4-3.3 6.8.1 2.6 1.5 5.3 4.2 8.1 2.4 2.4 4.9 3.9 7.3 4.2 2.5.3 4.6-.3 6.5-2.2l2.4-2.3c1.2-1.3 2.3-1.9 3.1-1.8.6.1 1.5.6 2.4 1.5l.4.3 2.6-2.5-8.7-9-2.6 2.5.4.5c1.1 1.1 1.6 2.1 1.6 2.9-.1.5-.3 1.1-.9 1.7l-.4.3-2.3 2.2c-1.6 1.6-3.2 2.1-4.8 1.7-1-.3-2.1-1-3.2-2.1-1.4-1.5-2.1-2.9-2.1-4.2 0-1.4.9-2.9 2.6-4.6l.9-.9c1.2-1.3 2.4-1.9 3.2-1.8.6 0 1.4.6 2.4 1.5l.5.5 2.6-2.5-10.9-10.8zm-13.1 17.2l-2.2 2.2.3.4c.9 1 1.3 1.8 1.3 2.4 0 .6-.6 1.4-1.6 2.3l-2 1.9c-1 1-1.8 1.6-2.4 1.6s-1.3-.5-2.3-1.4l-.4-.3-2.2 2.2 9.2 9.3 2.2-2.2-.4-.5c-.9-1-1.4-1.6-1.4-2.2 0-.6.4-1.3 1.3-2.1l.4-.3 3.1 3.2c.9.9 1 1.8.3 2.8s-1.4 2-2 2.9c-.4 1.3 0 2.7 1.6 4.3 1 1 1.9 1.6 3 1.6.9 0 1.9-.3 2.6-1l1.5-1.4-1.3-1.3-1.3 1.3c-.4.3-.6.4-.7.5-.1 0-.4 0-.5-.3-.3-.3-.2-.7.4-1.3l.7-.8c.8-.8 1.1-1.7 1-2.6-.1-.8-.6-1.6-1.4-2.4.8.7 1.5 1.1 2 1.3 1.6.6 3 .4 4.1-.7 1-.9 1.3-2 1-3.3-.2-1.2-1.2-2.7-2.6-4.2l-11.3-11.9zm4.4 8.8l3.3 3.3c1.1 1.2 1.3 2.1.6 2.7-.7.8-1.9.4-3.2-1l-2.9-2.9 2.2-2.1zm-16.7 4.7l-1.8 1.8.3.4c.9.9 1.2 1.6 1.1 2.2 0 .4-.4.8-.9 1.3l-2.2 2.2c-.8.8-1.5 1.3-1.9 1.3-.5.1-1.2-.3-2.1-1.1l-.3-.4-1.8 1.8 6.4 6.5 1.8-1.8-.3-.4c-.8-.7-1.1-1.4-1.1-1.9.1-.5.5-1.2 1.4-2l2-1.9 1.8 14.1 1.8 1.8 5.8-5.7c.8-.8 1.5-1.3 1.9-1.4.5-.1 1.3.3 2.2 1.2l.3.3 1.8-1.8-6.5-6.6-1.8 1.8.3.4c.8.7 1.1 1.4 1.1 2 0 .4-.1.8-.6 1.2-.1 0-.1.2-.2.2s-.1.2-.2.2l-1.7 1.8-1.5-12.5-5.1-5z"/><path id="prefix__path3911_00000137121646845288098910000013301775937579113631_" d="M138.3 65.9c-1.9 1.2-3.1 2.3-3.8 3.8-.7 1.4-.6 2.7.2 4.1s2 2 3.5 2.1c1.6.1 3.3-.4 5.2-1.4 1.9-1.2 3-2.2 3.6-3.7.7-1.4.6-2.7-.1-4-.8-1.3-2-2-3.5-2.1-1.7-.3-3.4.1-5.1 1.2zm10.7-6.2c-1.2.6-1.9 1.5-2.3 2.3-.3.9-.4 1.8.1 2.6s1 1.3 1.8 1.4c.8.1 1.9-.2 3.3-.8l1.8-.8c.7-.3 1.4-.5 1.6-.5.2 0 .4.1.4.3.1.2.1.7-.2 1-.3.3-.7.7-1.3 1-.8.4-1.6.7-2.6.9-1 0-1.7-.1-2.1-.6l-1.3.8 1.6 2.9 1.2-.7c-.2-.4-.1-.8.2-.9.7-.1 1.4-.3 2.1-.4s1.5-.5 2.2-.9c1.2-.6 1.9-1.5 2.3-2.3.4-.8.2-1.7-.2-2.5-.4-.7-1-1.1-1.6-1.3s-1.4-.2-2.2.1l-4.2 1.7c-.6.2-.9.2-1.1-.2-.1-.2 0-.6.2-1s.6-.7 1.1-1c1-.6 2-.8 3-.9.7 0 1.2.2 1.6.4l1.2-.7-1.3-2.4-1.2.7c.1.2.2.6-.2.7-.8.2-1.4.4-2.2.6-.5-.1-1.2.3-1.7.5zm-27.3 16.2l1 1.5.2-.1c.7-.4 1.3-.6 1.6-.3.2 0 .4.4.7.8l1 1.7c.4.8.7 1.4.6 1.7-.1.4-.5.6-1.1 1l-.2.1 1 1.5 10.2-5.9-1.8-3-1.6.9c.2.7.4 1.2.3 1.5-.1.4-.5.6-1.1 1l-2.2 1.2-1.8-3.1c-.4-.8-.6-1.4-.5-1.8.2-.3.4-.5 1-.9l.2-.1-1-1.5-6.5 3.8zm34-19.6l1 1.5.4-.2c.6-.4 1.2-.5 1.5-.3.3.2.5.3.8.8l1 1.7c.4.8.7 1.4.6 1.7-.1.4-.5.6-1.1 1l-.2.1 1 1.5 10.7-6.1-1.8-3.1-1.5 1c.4.6.5 1.2.3 1.5-.1.4-.6.7-1.2 1l-2.7 1.6-1-1.7.5-.3c.5-.4 1-.5 1.4-.5.3 0 .5.2.8.6l1.5-1-2-3.5-1.6.9c.2.4.2.7.2.9 0 .2-.3.5-.7.7l-.7.4-1.3-1.6 2.7-1.6c.6-.4 1-.5 1.4-.5.4 0 .8.4 1.3 1l1.5-1-1.8-3-11 6.5zm-16.5 11.1c.8-.4 1.7-.6 2.6-.4.9.2 1.6.7 2 1.5.4.8.5 1.6.3 2.5-.2.9-.8 1.5-1.6 2.1-.9.6-1.8.7-2.7.4-.9-.2-1.6-.7-2.1-1.6-.5-.8-.6-1.7-.3-2.6.3-.8.8-1.5 1.8-1.9zm10.9 8.6l-.2 6.8c0 .8 0 1.3-.2 1.7-.2.4-.6.7-1.1 1l1 1.5 5-3-1-1.5h-.1-.2c-.2.1-.6.3-.8.3-.3.1-.6 0-.7-.3v-.6l3.7-2.1c.3.2.4.3.5.3.2.1.1.3 0 .5s-.5.5-1 .7l1 1.5 6.3-3.6-1-1.5c-.4.2-.7.3-1.1.2-.5 0-1.1-.2-1.8-.6l-5.8-3.1-2.5 1.8zm1.8 2l2.2 1.2-2.1 1.3-.1-2.5zm-7.3 17.1l4.6 8.1 4-2.4c-.8-1.4-1.3-2.7-1-3.6.2-1 1.2-2.1 2.8-3l1.6-.9 4.6 8.1c1.2 1.9 1.5 3.3 1.4 4.1-.2.9-1.1 1.8-2.8 2.7l-.9.6 2.3 3.9 17.1-9.9-2.3-3.9-.9.5c-1.7 1-2.9 1.3-3.8 1-.8-.3-1.8-1.4-2.9-3.3L164 89l1.6-.9c1.7-1 3.1-1.4 4.2-.9.8.3 1.5 1.2 2.3 2.6l4-2.4-4.6-8.1-26.9 15.8zm12.7 22.2l1.8 3.1.6-.4c1.4-.8 2.5-1.2 3.1-1 .4.1 1 .6 1.4 1.3l.4.6 1.4 2.5c1.6 2.7 3.4 4.4 5.8 4.9 2.5.5 5.5-.1 8.9-2.1 2.9-1.7 5-3.8 5.9-6 .9-2.3.9-4.5-.5-6.8l-1.6-2.9c-1-1.5-1.3-2.7-1-3.4.2-.6 1-1.3 2-2l.4-.3-1.8-3.1-10.9 6.2 1.8 3.1.6-.3c1.3-.8 2.4-1 3.2-.8.5.2 1 .6 1.4 1.3l.2.5 1.6 2.8c1.2 1.9 1.2 3.6.5 5.1-.5.9-1.5 1.8-2.8 2.6-1.8 1-3.3 1.3-4.6 1-1.4-.3-2.6-1.6-3.8-3.7l-.6-1.1c-1-1.5-1.2-2.8-.9-3.5.1-.6.9-1.2 2-2l.6-.4-1.8-3.1-13.3 7.9zm13.5 16.9l1.6 2.7.5-.2c1.2-.6 2.1-.8 2.6-.7.6.1 1.2.9 1.8 2.1l1.3 2.4c.7 1.2 1.1 2.1 1 2.7-.1.6-.8 1.1-1.9 1.9l-.4.3 1.6 2.7 11.3-6.6-1.6-2.7-.6.3c-1.2.6-1.9 1-2.5.8-.6-.1-1.2-.7-1.7-1.8l-.2-.5 3.9-2.2c1.1-.6 2-.5 2.8.4s1.6 1.9 2.3 2.7c1.2.7 2.6.7 4.6-.5 1.2-.7 2-1.4 2.3-2.5.2-.9.2-1.9-.3-2.8l-1-1.8-1.6.9.9 1.6c.2.5.2.7.3.8 0 .1-.1.4-.4.4-.4.2-.7 0-1.2-.7l-.6-.9c-.6-1-1.4-1.5-2.3-1.6-.8-.1-1.7.2-2.7.8.9-.6 1.4-1.2 1.8-1.6 1-1.4 1.1-2.8.3-4.1-.6-1.2-1.6-1.8-2.9-1.8-1.2-.1-2.9.5-4.7 1.5l-14.3 8zm9.6-2l4-2.4c1.4-.8 2.4-.7 2.8.1.6.9-.1 1.9-1.8 2.9l-3.5 2.1-1.5-2.7zm.4 17.3l1.3 2.2.5-.2c1.1-.6 1.8-.8 2.4-.5.4.1.7.6 1 1.2l1.6 2.7c.6 1 .9 1.8.8 2.2 0 .5-.6 1.1-1.6 1.8l-.5.2 1.3 2.2 7.9-4.6-1.3-2.2-.5.2c-.9.6-1.6.7-2.1.6-.5-.2-1-.8-1.6-1.9l-1.3-2.4 14.1 1.8 2.2-1.3-4.1-7c-.6-1-.9-1.8-.9-2.2 0-.5.6-1.2 1.7-1.8l.4-.2-1.3-2.2-8 4.7 1.3 2.2.5-.2c.9-.6 1.6-.7 2.2-.6.4.1.8.3 1 .9 0 .1.2.1.1.2s.2.1.1.2l1.3 2.1-12.5-1.7-6 3.6z"/><path id="prefix__text5080_00000159441270087581014280000002681743377514228609_" d="M75.4 343.6c3.6-2.2 7.3-2.8 10.9-1.6 3.7 1.1 6.8 3.7 9.3 7.8 1.7 2.7 2.6 5.2 2.8 7.3.2 2.1-.5 3.6-2 4.5-.9.5-1.7.7-2.6.4-.9-.3-1.7-1-2.3-2.1-.6-1-.9-1.9-.9-2.8.1-.9.5-1.6 1.1-2 .4-.3.9-.3 1.3-.1.4-1.3.2-2.6-.6-3.9-1.2-2-2.8-2.9-4.9-2.8-1.3.1-2.8.6-4.3 1.6-.3.2-.4.3-.6.4-.2.1-.3.2-.4.3 2.4.9 4.4 2.6 6 5.2 1.6 2.6 2.2 5.3 1.8 8-.4 2.7-1.7 4.7-4 6.1-2.8 1.7-5.8 1.8-8.8.1-2.6-1.4-4.7-3.5-6.5-6.5-2.3-3.8-3.1-7.5-2.3-11.1 1.1-3.6 3.3-6.5 7-8.8zm1.1 10.4c-1.4.8-2.3 1.9-2.7 3.2-.5 1.3-.4 2.6.2 3.6.7 1.1 1.6 1.7 2.9 2s2.6-.1 4.1-1c1.4-.8 2.3-1.9 2.7-3.1.5-1.3.3-2.5-.4-3.7-.6-1-1.6-1.7-2.9-2-1.3-.1-2.6.2-3.9 1z"/><path id="prefix__text5084_00000107580523218289588450000001050004134672806276_" d="M101.2 326.7c3.4-2.1 7-2.7 10.7-1.6 3.7 1 6.8 3.5 9.1 7.2 2.2 3.6 3 7.3 2.1 11.1-.8 3.7-2.9 6.7-6.3 8.8-3.5 2.1-7.1 2.7-10.8 1.7-3.7-1-6.7-3.4-9-7.3-2.2-3.6-2.9-7.4-2-11.2.8-3.7 2.9-6.6 6.2-8.7zm4.7 8.3c-2.5 1.5-4.2 3.1-5.3 5-1.1 1.8-1.2 3.4-.3 4.9.8 1.3 1.9 2 3.4 2.1 2.1.2 4.7-.7 7.9-2.6 2.7-1.7 4.6-3.4 5.7-5.1 1.1-1.7 1.1-3.4.1-5-1.8-3.1-5.7-2.8-11.5.7z"/><path id="prefix__path3911_00000157265777738556197220000018104233716429599360_" d="M422.1 411.4c1.5-1.6 2.4-3 2.6-4.7.2-1.5-.2-2.8-1.3-3.9s-2.4-1.5-3.9-1.2-3.1 1.2-4.6 2.7c-1.5 1.6-2.3 3-2.5 4.5-.2 1.5.2 2.8 1.2 3.8 1.1 1.1 2.5 1.4 3.9 1.2 1.7 0 3.2-.9 4.6-2.4zm-8.7 8.8c1-.9 1.4-1.9 1.7-2.9.1-1-.1-1.8-.8-2.5-.6-.7-1.4-.9-2.1-.8-.8.1-1.8.7-3 1.6l-1.6 1.3c-.6.5-1.2.8-1.4 1-.2.1-.4 0-.5-.1-.2-.2-.4-.6-.1-1 .2-.4.5-.9.9-1.4.7-.6 1.4-1.2 2.2-1.5 1-.3 1.7-.3 2.2.1l1.1-1.1-2.3-2.3-1 1.1c.3.3.3.7 0 .9-.6.4-1.3.6-1.9 1-.6.4-1.2.8-1.9 1.5-1 .9-1.4 1.9-1.6 2.8-.2.9.2 1.7.8 2.4.6.6 1.2.8 1.9.9.7 0 1.4-.2 2.1-.6l3.6-2.8c.5-.3.8-.4 1.1-.1.2.2.2.6.1 1s-.3.8-.8 1.3c-.8.8-1.7 1.3-2.6 1.7-.7.2-1.2.1-1.7 0l-1 1.1 2 2 1-1.1c-.2-.2-.3-.5 0-.7.7-.4 1.3-.8 2-1.2s1.2-1.2 1.6-1.6zm22-22.8l-1.3-1.2-.2.2c-.6.6-1.1.9-1.5.8-.2 0-.5-.3-.9-.6l-1.4-1.4c-.6-.7-1-1.1-1-1.5 0-.4.3-.7.8-1.3l.2-.2-1.3-1.2-8.2 8.3 2.5 2.5 1.3-1.3c-.4-.6-.7-1.1-.7-1.3 0-.4.3-.7.8-1.3l1.8-1.7 2.6 2.6c.6.7.9 1.2.9 1.5-.1.3-.3.6-.7 1.1l-.2.2 1.3 1.2 5.2-5.4zm-27.5 28l-1.3-1.2-.3.3c-.5.5-1 .8-1.4.7-.3-.1-.6-.2-1-.6l-1.4-1.4c-.6-.7-1-1.1-1-1.5s.3-.7.8-1.3l.2-.2-1.3-1.2-8.6 8.8 2.6 2.6 1.2-1.3c-.5-.5-.8-1-.7-1.4 0-.4.3-.8.8-1.3l2.2-2.2 1.4 1.4-.4.3c-.4.5-.8.7-1.2.8-.3.1-.5-.1-.9-.4l-1.2 1.3 2.8 2.8 1.3-1.3c-.3-.3-.4-.6-.5-.8 0-.2.2-.6.5-.9l.6-.6 1.7 1.2-2.2 2.2c-.5.5-.8.7-1.2.8-.4.1-.9-.2-1.5-.6l-1.2 1.3 2.5 2.5 8.7-8.8zm13-15.1c-.7.6-1.5 1-2.4 1.1-.9.1-1.7-.3-2.3-1-.6-.7-1-1.4-.9-2.4 0-.9.4-1.7 1-2.4.7-.8 1.5-1.1 2.5-1.1.9-.1 1.7.3 2.4.9.7.6 1 1.5 1 2.4-.2 1-.6 1.8-1.3 2.5zm-12.9-5.5l-1.7-6.6c-.2-.8-.3-1.3-.2-1.7.1-.4.3-.8.8-1.2l-1.3-1.2-4.1 4.1 1.3 1.2.1-.1s.1-.1.2-.1c.2-.2.5-.4.7-.5.3-.2.6-.2.7 0 .1.1.2.3.2.6l-3.1 3.1c-.3-.1-.5-.2-.6-.2-.2-.1-.2-.3-.1-.5s.4-.6.8-1l-1.3-1.2-5.1 5.2 1.3 1.2c.3-.3.6-.5.9-.6.5-.1 1.1-.1 1.9 0l6.5 1.5 2.1-2zm-2.2-1.4l-2.4-.5 1.7-1.8.7 2.3zm2.3-18.4l-6.6-6.5-3.3 3.3c1.2 1.2 1.9 2.2 2 3.1 0 1-.5 2.3-1.9 3.7L397 390l-6.6-6.5c-1.6-1.5-2.3-2.8-2.4-3.5-.1-.9.6-2 2-3.4l.7-.8-3.3-3.2-13.8 14.1 3.3 3.2.8-.7c1.4-1.4 2.4-2 3.4-2 .9.1 2.1.8 3.6 2.4l6.6 6.5-1.3 1.3c-1.4 1.4-2.7 2.2-3.8 2-.9-.1-1.8-.8-3-1.9l-3.3 3.3 6.6 6.5 21.6-22.3zM390 367.1l-2.6-2.6-.5.5c-1.2 1.2-2.1 1.8-2.8 1.8-.4 0-1.1-.3-1.7-.9l-.5-.5-2-2.1c-2.2-2.2-4.5-3.3-6.9-3.1-2.6.1-5.2 1.6-8 4.4-2.4 2.5-3.8 4.9-4.1 7.4-.3 2.5.4 4.6 2.3 6.4l2.3 2.3c1.3 1.2 1.9 2.2 1.8 3.1-.1.6-.5 1.5-1.5 2.4l-.3.4 2.6 2.6 8.8-8.9-2.6-2.6-.5.4c-1.1 1.1-2 1.7-2.8 1.7-.5-.1-1.1-.3-1.7-.9l-.3-.4-2.3-2.3c-1.6-1.6-2.2-3.1-1.8-4.8.2-1 1-2.1 2.1-3.2 1.5-1.4 2.8-2.1 4.2-2.1s2.9.8 4.6 2.5l.9.9c1.3 1.2 2 2.3 1.9 3.2 0 .6-.6 1.4-1.5 2.4l-.5.5 2.6 2.6 10.8-11.1zm-17.5-12.8l-2.2-2.2-.4.3c-1 .9-1.7 1.4-2.3 1.4-.6 0-1.4-.6-2.3-1.5l-2-2c-1.1-1-1.7-1.8-1.6-2.4 0-.6.5-1.3 1.3-2.3l.3-.4-2.2-2.2-9.1 9.3 2.2 2.2.5-.4c1-.9 1.6-1.4 2.2-1.4.6 0 1.3.4 2.2 1.3l.3.4-3.1 3.1c-.9.9-1.8 1.1-2.8.4-1-.7-2-1.4-2.9-2-1.3-.4-2.7.1-4.2 1.7-1 1.1-1.5 1.9-1.6 3 0 .9.3 1.9 1.1 2.6l1.4 1.5 1.3-1.3-1.3-1.3c-.3-.4-.4-.6-.5-.7 0-.1 0-.4.3-.5.3-.3.7-.2 1.3.4l.8.7c.8.8 1.7 1.1 2.7 1 .8-.1 1.6-.6 2.4-1.4-.7.9-1.1 1.6-1.2 2-.6 1.6-.3 3 .8 4.1.9 1 2 1.2 3.3.9 1.2-.3 2.6-1.2 4.1-2.7l11.2-11.6zm-8.7 4.5l-3.3 3.3c-1.2 1.2-2.1 1.4-2.7.7-.8-.7-.4-1.9 1-3.3l2.9-3 2.1 2.3zm-5-16.5l-1.9-1.8-.4.3c-.9.9-1.6 1.3-2.2 1.2-.4 0-.8-.3-1.3-.8l-2.2-2.2c-.8-.8-1.3-1.4-1.3-1.9-.1-.5.3-1.2 1.1-2.1l.4-.3-1.9-1.8-6.4 6.5 1.9 1.8.4-.3c.7-.8 1.4-1.2 1.9-1.1s1.2.5 2.1 1.3l2 2-14.1 2.1-1.9 1.8 5.8 5.7c.8.8 1.3 1.4 1.4 1.8.1.5-.3 1.3-1.1 2.2l-.3.3 1.9 1.8 6.4-6.6-1.9-1.8-.4.3c-.7.8-1.4 1.2-2 1.2-.4 0-.8-.1-1.2-.6-.1-.1-.2-.1-.2-.2-.1-.1-.2-.1-.2-.2l-1.8-1.7 12.4-1.8 5-5.1z"/></svg>